<svg width="46" height="10" viewBox="0 0 46 10" fill="none" xmlns="http://www.w3.org/2000/svg">
<path fill-rule="evenodd" clip-rule="evenodd" d="M0.683985 0.600098H6.36931L2.67599 4.48436V3.1801H0.683985C0.595985 3.1801 0.519985 3.1481 0.455985 3.0841C0.391985 3.0201 0.359985 2.9441 0.359985 2.8561V0.924098C0.359985 0.836098 0.391985 0.760098 0.455985 0.696098C0.519985 0.632098 0.595985 0.600098 0.683985 0.600098ZM2.67599 8.53606V5.93559L7.74782 0.601542C7.82245 0.608429 7.88784 0.639948 7.94399 0.696098C8.00799 0.760098 8.03999 0.836098 8.03999 0.924098V2.8561C8.03999 2.87014 8.03917 2.88388 8.03754 2.89732L7.77322 3.1753C7.75475 3.1785 7.73567 3.1801 7.71599 3.1801H5.72399V5.33048L2.67599 8.53606ZM3.61465 9.0001H5.39999C5.48799 9.0001 5.56399 8.9681 5.62799 8.9041C5.69199 8.8401 5.72399 8.7641 5.72399 8.6761V6.78171L3.61465 9.0001Z" fill="white"/>
<path fill-rule="evenodd" clip-rule="evenodd" d="M8.65604 1.30797C9.0982 0.979916 9.61948 0.749343 10.2199 0.616252L7.55434 3.41827C7.62902 2.50093 7.99625 1.79749 8.65604 1.30797ZM7.54004 5.81997V4.84024L11.687 0.480957C13.1825 0.504343 14.2881 0.944015 15.004 1.79997C15.0177 1.81609 15.0311 1.83233 15.0443 1.84871L12.9802 3.81597H12.892C12.764 3.81597 12.668 3.79197 12.604 3.74397C12.548 3.69597 12.496 3.60397 12.448 3.46797C12.296 3.03597 11.996 2.81997 11.548 2.81997C10.956 2.81997 10.66 3.14397 10.66 3.79197V5.80797C10.66 5.88162 10.6639 5.95109 10.6715 6.01637L8.43193 8.15088C7.83734 7.60913 7.54004 6.83216 7.54004 5.81997ZM9.30188 8.70318C9.92604 8.98104 10.6788 9.11997 11.56 9.11997C13.12 9.11997 14.268 8.67997 15.004 7.79997C15.404 7.32797 15.604 6.74397 15.604 6.04797C15.604 5.97597 15.576 5.91597 15.52 5.86797C15.472 5.81197 15.412 5.78397 15.34 5.78397H12.892C12.756 5.78397 12.656 5.80797 12.592 5.85597C12.536 5.90397 12.488 5.99597 12.448 6.13197C12.304 6.56397 12.004 6.77997 11.548 6.77997C11.4727 6.77997 11.4021 6.77472 11.3363 6.76421L9.30188 8.70318ZM14.4297 3.81597H15.34C15.412 3.81597 15.472 3.79197 15.52 3.74397C15.576 3.68797 15.604 3.62397 15.604 3.55197C15.604 3.27897 15.5733 3.0232 15.5117 2.78466L14.4297 3.81597Z" fill="white"/>
<path d="M22.4609 3.83105H21.5259V7H21.0791V3.83105H20.1465V3.44531H22.4609V3.83105ZM24.2306 4.76367C24.1703 4.75228 24.1052 4.74658 24.0353 4.74658C23.8139 4.74658 23.6593 4.86784 23.5714 5.11035V7H23.1393V4.3584H23.5592L23.5665 4.62695C23.6821 4.41536 23.8456 4.30957 24.0572 4.30957C24.1256 4.30957 24.1826 4.32096 24.2281 4.34375L24.2306 4.76367ZM26.4104 6.76807C26.2671 6.95524 26.058 7.04883 25.7829 7.04883C25.5437 7.04883 25.363 6.96663 25.2409 6.80225C25.1188 6.63623 25.057 6.39535 25.0554 6.07959V4.3584H25.4851V6.04785C25.4851 6.45964 25.6088 6.66553 25.8562 6.66553C26.1182 6.66553 26.2989 6.54834 26.3981 6.31396V4.3584H26.8303V7H26.4201L26.4104 6.76807ZM28.6805 5.67432H27.6722V5.30566H28.6805V5.67432ZM31.81 5.87207C31.7904 6.25293 31.683 6.54427 31.4877 6.74609C31.294 6.94792 31.0198 7.04883 30.6649 7.04883C30.3085 7.04883 30.0253 6.91374 29.8153 6.64355C29.6054 6.37174 29.5004 6.00391 29.5004 5.54004V4.89551C29.5004 4.43327 29.6078 4.06787 29.8227 3.79932C30.0391 3.53076 30.3337 3.39648 30.7064 3.39648C31.0499 3.39648 31.3152 3.49984 31.5023 3.70654C31.6911 3.91162 31.7937 4.2054 31.81 4.58789H31.3583C31.3388 4.29818 31.2777 4.09147 31.1752 3.96777C31.0727 3.84408 30.9164 3.78223 30.7064 3.78223C30.4639 3.78223 30.2776 3.87744 30.1474 4.06787C30.0172 4.25667 29.9521 4.53418 29.9521 4.90039V5.55225C29.9521 5.91195 30.0123 6.18783 30.1327 6.37988C30.2548 6.57194 30.4322 6.66797 30.6649 6.66797C30.8977 6.66797 31.0653 6.61019 31.1679 6.49463C31.2704 6.37907 31.3339 6.17155 31.3583 5.87207H31.81ZM34.1167 7C34.0907 6.94303 34.0719 6.84701 34.0605 6.71191C33.9076 6.93652 33.7122 7.04883 33.4746 7.04883C33.2354 7.04883 33.0482 6.9821 32.9131 6.84863C32.7796 6.71354 32.7129 6.52393 32.7129 6.27979C32.7129 6.01123 32.804 5.79801 32.9863 5.64014C33.1686 5.48226 33.4185 5.40169 33.7358 5.39844H34.0532V5.11768C34.0532 4.9598 34.0182 4.84749 33.9482 4.78076C33.8783 4.71403 33.7716 4.68066 33.6284 4.68066C33.4982 4.68066 33.3924 4.71973 33.311 4.79785C33.2297 4.87435 33.189 4.97201 33.189 5.09082H32.7568C32.7568 4.95573 32.7967 4.82715 32.8765 4.70508C32.9562 4.58138 33.0636 4.48454 33.1987 4.41455C33.3338 4.34456 33.4844 4.30957 33.6504 4.30957C33.9206 4.30957 34.1257 4.37712 34.2656 4.51221C34.4072 4.64567 34.4797 4.84098 34.4829 5.09814V6.43115C34.4845 6.6346 34.5122 6.8112 34.5659 6.96094V7H34.1167ZM33.5405 6.65576C33.6463 6.65576 33.7472 6.62646 33.8433 6.56787C33.9393 6.50928 34.0093 6.43604 34.0532 6.34814V5.71826H33.8091C33.604 5.72152 33.4421 5.7679 33.3232 5.85742C33.2044 5.94531 33.145 6.06901 33.145 6.22852C33.145 6.37826 33.1751 6.4873 33.2354 6.55566C33.2956 6.6224 33.3973 6.65576 33.5405 6.65576ZM37.4635 5.80615C37.4635 6.22445 37.3878 6.53613 37.2364 6.74121C37.0867 6.94629 36.8743 7.04883 36.5992 7.04883C36.3339 7.04883 36.1297 6.94873 35.9864 6.74854V8.01562H35.5567V4.3584H35.9474L35.9693 4.65137C36.1142 4.4235 36.3217 4.30957 36.5919 4.30957C36.8816 4.30957 37.0981 4.41048 37.2413 4.6123C37.3845 4.81413 37.4586 5.11605 37.4635 5.51807V5.80615ZM37.0338 5.55957C37.0338 5.26335 36.9882 5.04525 36.8971 4.90527C36.8059 4.76367 36.6594 4.69287 36.4576 4.69287C36.2509 4.69287 36.0938 4.79622 35.9864 5.00293V6.37744C36.0922 6.57926 36.2509 6.68018 36.4625 6.68018C36.6578 6.68018 36.801 6.61019 36.8922 6.47021C36.985 6.32861 37.0322 6.11296 37.0338 5.82324V5.55957ZM38.8864 7H38.4543V4.3584H38.8864V7ZM38.9206 3.65771C38.9206 3.73096 38.9003 3.79199 38.8596 3.84082C38.8189 3.88965 38.757 3.91406 38.674 3.91406C38.5926 3.91406 38.5316 3.88965 38.4909 3.84082C38.4502 3.79199 38.4299 3.73096 38.4299 3.65771C38.4299 3.58447 38.4502 3.52262 38.4909 3.47217C38.5316 3.42171 38.5926 3.39648 38.674 3.39648C38.7554 3.39648 38.8164 3.42253 38.8571 3.47461C38.8994 3.52507 38.9206 3.5861 38.9206 3.65771ZM40.534 3.71875V4.3584H40.9319V4.70752H40.534V6.3457C40.534 6.44987 40.5511 6.52881 40.5853 6.58252C40.6194 6.63623 40.678 6.66309 40.761 6.66309C40.818 6.66309 40.8758 6.65332 40.9344 6.63379L40.9295 7C40.8318 7.03255 40.7317 7.04883 40.6292 7.04883C40.4583 7.04883 40.3281 6.98779 40.2386 6.86572C40.1491 6.74365 40.1043 6.57113 40.1043 6.34814V4.70752H39.7015V4.3584H40.1043V3.71875H40.534ZM43.2069 7C43.1809 6.94303 43.1622 6.84701 43.1508 6.71191C42.9978 6.93652 42.8025 7.04883 42.5648 7.04883C42.3256 7.04883 42.1384 6.9821 42.0033 6.84863C41.8699 6.71354 41.8031 6.52393 41.8031 6.27979C41.8031 6.01123 41.8943 5.79801 42.0766 5.64014C42.2589 5.48226 42.5087 5.40169 42.8261 5.39844H43.1435V5.11768C43.1435 4.9598 43.1085 4.84749 43.0385 4.78076C42.9685 4.71403 42.8619 4.68066 42.7187 4.68066C42.5884 4.68066 42.4827 4.71973 42.4013 4.79785C42.3199 4.87435 42.2792 4.97201 42.2792 5.09082H41.8471C41.8471 4.95573 41.8869 4.82715 41.9667 4.70508C42.0465 4.58138 42.1539 4.48454 42.289 4.41455C42.4241 4.34456 42.5746 4.30957 42.7406 4.30957C43.0108 4.30957 43.2159 4.37712 43.3559 4.51221C43.4975 4.64567 43.5699 4.84098 43.5731 5.09814V6.43115C43.5748 6.6346 43.6024 6.8112 43.6562 6.96094V7H43.2069ZM42.6308 6.65576C42.7366 6.65576 42.8375 6.62646 42.9335 6.56787C43.0295 6.50928 43.0995 6.43604 43.1435 6.34814V5.71826H42.8993C42.6942 5.72152 42.5323 5.7679 42.4135 5.85742C42.2947 5.94531 42.2353 6.06901 42.2353 6.22852C42.2353 6.37826 42.2654 6.4873 42.3256 6.55566C42.3858 6.6224 42.4875 6.65576 42.6308 6.65576ZM45.1108 7H44.6787V3.25H45.1108V7Z" fill="white"/>
</svg>
